# Blender v2.79 (sub 0) OBJ File: ''
# www.blender.org
mtllib motor.mtl
o motor
v 0.875000 0.062500 0.250000
v 0.875000 0.875000 0.250000
v 0.875000 0.062500 0.187500
v 0.875000 0.875000 0.187500
v 0.125000 0.062500 0.187500
v 0.125000 0.875000 0.187500
v 0.125000 0.875000 0.250000
v 0.125000 0.062500 0.250000
v 0.125000 0.062500 0.687500
v 0.125000 0.875000 0.687500
v 0.125000 0.875000 0.625000
v 0.125000 0.062500 0.625000
v 0.875000 0.875000 0.625000
v 0.875000 0.062500 0.625000
v 0.875000 0.875000 0.687500
v 0.875000 0.062500 0.687500
v 0.125000 0.000000 1.000000
v 0.125000 0.062500 1.000000
v 0.125000 0.062500 0.000000
v 0.125000 0.000000 0.000000
v 0.875000 0.062500 0.000000
v 0.875000 0.000000 0.000000
v 0.875000 0.062500 1.000000
v 0.875000 0.000000 1.000000
v 0.375000 0.125000 0.937500
v 0.375000 0.187500 0.937500
v 0.375000 0.187500 0.250000
v 0.375000 0.125000 0.250000
v 0.625000 0.187500 0.250000
v 0.625000 0.125000 0.250000
v 0.625000 0.187500 0.937500
v 0.625000 0.125000 0.937500
v 0.250000 0.187500 0.937500
v 0.250000 0.250000 0.937500
v 0.250000 0.250000 0.250000
v 0.250000 0.187500 0.250000
v 0.750000 0.250000 0.250000
v 0.750000 0.187500 0.250000
v 0.750000 0.250000 0.937500
v 0.750000 0.187500 0.937500
v 0.187500 0.250000 0.937500
v 0.187500 0.375000 0.937500
v 0.187500 0.375000 0.250000
v 0.187500 0.250000 0.250000
v 0.812500 0.375000 0.250000
v 0.812500 0.250000 0.250000
v 0.812500 0.375000 0.937500
v 0.812500 0.250000 0.937500
v 0.125000 0.375000 0.937500
v 0.125000 0.625000 0.937500
v 0.125000 0.625000 0.250000
v 0.125000 0.375000 0.250000
v 0.875000 0.625000 0.250000
v 0.875000 0.375000 0.250000
v 0.875000 0.625000 0.937500
v 0.875000 0.375000 0.937500
v 0.187500 0.625000 0.937500
v 0.187500 0.750000 0.937500
v 0.187500 0.750000 0.250000
v 0.187500 0.625000 0.250000
v 0.812500 0.750000 0.250000
v 0.812500 0.625000 0.250000
v 0.812500 0.750000 0.937500
v 0.812500 0.625000 0.937500
v 0.250000 0.750000 0.937500
v 0.250000 0.812500 0.937500
v 0.250000 0.812500 0.250000
v 0.250000 0.750000 0.250000
v 0.750000 0.812500 0.250000
v 0.750000 0.750000 0.250000
v 0.750000 0.812500 0.937500
v 0.750000 0.750000 0.937500
v 0.375000 0.812500 0.937500
v 0.375000 0.875000 0.937500
v 0.375000 0.875000 0.250000
v 0.375000 0.812500 0.250000
v 0.625000 0.875000 0.250000
v 0.625000 0.812500 0.250000
v 0.625000 0.875000 0.937500
v 0.625000 0.812500 0.937500
v 0.312500 0.125000 0.187500
v 0.312500 0.125000 -0.062500
v 0.875000 0.312500 -0.062500
v 0.687500 0.125000 -0.062500
v 0.687500 0.125000 0.187500
v 0.125000 0.312500 0.187500
v 0.125000 0.687500 -0.062500
v 0.125000 0.312500 -0.062500
v 0.875000 0.687500 0.187500
v 0.875000 0.312500 0.187500
v 0.125000 0.687500 0.187500
v 0.312500 0.875000 0.187500
v 0.312500 0.875000 -0.062500
v 0.687500 0.875000 -0.062500
v 0.875000 0.687500 -0.062500
v 0.687500 0.875000 0.187500
v 0.687500 0.125000 0.937500
v 0.875000 0.312500 1.000000
v 0.687500 0.125000 1.000000
v 0.125000 0.312500 1.000000
v 0.312500 0.125000 1.000000
v 0.125000 0.687500 1.000000
v 0.125000 0.687500 0.937500
v 0.125000 0.312500 0.937500
v 0.687500 0.875000 1.000000
v 0.875000 0.687500 1.000000
v 0.312500 0.875000 1.000000
v 0.312500 0.875000 0.937500
v 0.312500 0.125000 0.937500
v 0.875000 0.312500 0.937500
v 0.687500 0.875000 0.937500
v 0.875000 0.687500 0.937500
vt 0.187500 0.984375
vt 0.375000 0.984375
vt 0.375000 1.000000
vt 0.187500 1.000000
vt 0.375000 0.796875
vt 0.375000 1.000000
vt 0.187500 1.000000
vt 0.187500 0.796875
vt 0.203125 0.796875
vt 0.203125 1.000000
vt 0.187500 0.796875
vt 0.375000 0.796875
vt 0.375000 1.000000
vt 0.187500 1.000000
vt 0.187500 0.796875
vt 0.203125 0.796875
vt 0.203125 1.000000
vt 0.187500 1.000000
vt 0.187500 0.796875
vt 0.203125 0.796875
vt 0.203125 1.000000
vt 0.187500 1.000000
vt 0.187500 0.796875
vt 0.375000 0.796875
vt 0.375000 1.000000
vt 0.187500 1.000000
vt 0.187500 0.796875
vt 0.203125 0.796875
vt 0.203125 1.000000
vt 0.187500 1.000000
vt 0.187500 0.796875
vt 0.375000 0.796875
vt 0.375000 1.000000
vt 0.187500 1.000000
vt 0.187500 0.796875
vt 0.187500 0.984375
vt 0.375000 0.984375
vt 0.375000 1.000000
vt 0.000000 0.750000
vt 0.015625 0.750000
vt 0.015625 1.000000
vt 0.000000 1.000000
vt 0.000000 0.984375
vt 0.187500 0.984375
vt 0.187500 1.000000
vt 0.000000 0.750000
vt 0.015625 0.750000
vt 0.015625 1.000000
vt 0.000000 1.000000
vt 0.000000 0.984375
vt 0.187500 0.984375
vt 0.187500 1.000000
vt 0.000000 0.750000
vt 0.187500 0.750000
vt 0.187500 1.000000
vt 0.000000 1.000000
vt 0.000000 0.750000
vt 0.187500 0.750000
vt 0.187500 1.000000
vt 0.000000 1.000000
vt 0.000000 0.640625
vt 0.000000 0.625000
vt 0.171875 0.625000
vt 0.171875 0.640625
vt 0.375000 0.250000
vt 0.625000 0.250000
vt 0.625000 0.500000
vt 0.375000 0.500000
vt 0.171875 0.687500
vt 0.171875 0.671875
vt 0.000000 0.671875
vt 0.000000 0.687500
vt 0.171875 0.625000
vt 0.000000 0.625000
vt 0.000000 0.640625
vt 0.000000 0.625000
vt 0.171875 0.625000
vt 0.171875 0.640625
vt 0.375000 0.250000
vt 0.625000 0.250000
vt 0.625000 0.500000
vt 0.375000 0.500000
vt 0.171875 0.625000
vt 0.171875 0.609375
vt 0.000000 0.609375
vt 0.000000 0.625000
vt 0.171875 0.500000
vt 0.000000 0.500000
vt 0.000000 0.625000
vt 0.000000 0.593750
vt 0.171875 0.593750
vt 0.171875 0.625000
vt 0.375000 0.250000
vt 0.625000 0.250000
vt 0.625000 0.500000
vt 0.375000 0.500000
vt 0.171875 0.625000
vt 0.171875 0.593750
vt 0.000000 0.593750
vt 0.000000 0.625000
vt 0.171875 0.500000
vt 0.000000 0.500000
vt 0.000000 0.687500
vt 0.000000 0.625000
vt 0.171875 0.625000
vt 0.171875 0.687500
vt 0.375000 0.250000
vt 0.625000 0.250000
vt 0.625000 0.500000
vt 0.375000 0.500000
vt 0.171875 0.687500
vt 0.171875 0.625000
vt 0.000000 0.625000
vt 0.000000 0.687500
vt 0.171875 0.609375
vt 0.171875 0.625000
vt 0.000000 0.625000
vt 0.000000 0.609375
vt 0.171875 0.609375
vt 0.000000 0.609375
vt 0.000000 0.593750
vt 0.000000 0.625000
vt 0.171875 0.625000
vt 0.171875 0.593750
vt 0.375000 0.250000
vt 0.625000 0.250000
vt 0.625000 0.500000
vt 0.375000 0.500000
vt 0.171875 0.531250
vt 0.171875 0.500000
vt 0.000000 0.500000
vt 0.000000 0.531250
vt 0.171875 0.640625
vt 0.171875 0.609375
vt 0.000000 0.609375
vt 0.000000 0.640625
vt 0.000000 0.640625
vt 0.000000 0.625000
vt 0.171875 0.625000
vt 0.171875 0.640625
vt 0.375000 0.250000
vt 0.625000 0.250000
vt 0.625000 0.500000
vt 0.375000 0.500000
vt 0.171875 0.671875
vt 0.171875 0.687500
vt 0.000000 0.687500
vt 0.000000 0.671875
vt 0.171875 0.500000
vt 0.000000 0.500000
vt 0.000000 0.640625
vt 0.000000 0.625000
vt 0.171875 0.625000
vt 0.171875 0.640625
vt 0.375000 0.250000
vt 0.625000 0.250000
vt 0.625000 0.500000
vt 0.375000 0.500000
vt 0.171875 0.671875
vt 0.171875 0.687500
vt 0.000000 0.687500
vt 0.000000 0.671875
vt 0.171875 0.625000
vt 0.171875 0.687500
vt 0.000000 0.687500
vt 0.000000 0.625000
vt 0.000000 0.687500
vt 0.062500 0.687500
vt 0.062500 0.750000
vt 0.000000 0.750000
vt 0.375000 0.953125
vt 0.421875 1.000000
vt 0.515625 1.000000
vt 0.562500 0.953125
vt 0.000000 0.687500
vt 0.062500 0.687500
vt 0.062500 0.750000
vt 0.000000 0.750000
vt 0.062500 0.687500
vt 0.156250 0.687500
vt 0.156250 0.750000
vt 0.062500 0.750000
vt 0.156250 0.687500
vt 0.156250 0.750000
vt 0.375000 0.953125
vt 0.375000 0.859375
vt 0.562500 0.859375
vt 0.562500 0.953125
vt 0.156250 0.687500
vt 0.062500 0.687500
vt 0.062500 0.750000
vt 0.156250 0.750000
vt 0.000000 0.687500
vt 0.062500 0.687500
vt 0.062500 0.750000
vt 0.000000 0.750000
vt 0.421875 0.812500
vt 0.515625 0.812500
vt 0.000000 0.687500
vt 0.062500 0.687500
vt 0.062500 0.750000
vt 0.000000 0.750000
vt 0.156250 0.687500
vt 0.156250 0.750000
vt 0.703125 0.812500
vt 0.750000 0.859375
vt 0.562500 0.859375
vt 0.609375 0.812500
vt 0.046875 0.734375
vt 0.109375 0.734375
vt 0.109375 0.750000
vt 0.046875 0.750000
vt 0.046875 0.734375
vt 0.109375 0.734375
vt 0.109375 0.750000
vt 0.046875 0.750000
vt 0.375000 0.859375
vt 0.375000 0.953125
vt 0.390625 0.953125
vt 0.390625 0.859375
vt 0.375000 0.953125
vt 0.375000 0.859375
vt 0.390625 0.859375
vt 0.390625 0.953125
vt 0.375000 0.953125
vt 0.375000 0.859375
vt 0.390625 0.859375
vt 0.390625 0.953125
vt 0.046875 0.734375
vt 0.109375 0.734375
vt 0.109375 0.750000
vt 0.046875 0.750000
vt 0.046875 0.734375
vt 0.109375 0.734375
vt 0.109375 0.750000
vt 0.046875 0.750000
vt 0.375000 0.859375
vt 0.375000 0.953125
vt 0.390625 0.953125
vt 0.390625 0.859375
vt 0.515625 0.812500
vt 0.562500 0.859375
vt 0.375000 0.859375
vt 0.421875 0.812500
vt 0.562500 0.953125
vt 0.375000 0.953125
vt 0.515625 1.000000
vt 0.421875 1.000000
vt 0.750000 0.953125
vt 0.562500 0.953125
vt 0.609375 1.000000
vt 0.703125 1.000000
vn 0.0000 1.0000 0.0000
vn 0.0000 -0.0000 1.0000
vn 1.0000 0.0000 0.0000
vn 0.0000 0.0000 -1.0000
vn -1.0000 0.0000 0.0000
vn 0.0000 -1.0000 -0.0000
vn -0.0007 0.0000 -1.0000
vn -0.0005 0.0000 -1.0000
vn -0.7071 -0.7071 -0.0000
vn -0.0481 -0.0107 -0.9988
vn 0.0854 0.0253 -0.9960
vn 0.6689 -0.7397 0.0737
vn 0.6559 -0.7514 0.0716
vn 0.6606 -0.7480 0.0646
vn 0.6605 -0.7469 0.0766
vn -0.7071 0.7071 0.0000
vn 0.7071 0.7071 0.0000
vn 0.7071 -0.7071 0.0000
vn -0.6689 -0.7397 -0.0737
vn -0.6559 -0.7514 -0.0716
vn -0.6606 -0.7480 -0.0646
vn -0.6605 -0.7469 -0.0766
vn -0.0854 0.0253 0.9960
usemtl motor
s off
f 4/1/1 6/2/1 7/3/1 2/4/1
f 1/5/2 2/6/2 7/7/2 8/8/2
f 3/9/3 4/10/3 2/4/3 1/11/3
f 5/12/4 6/13/4 4/14/4 3/15/4
f 8/16/5 7/17/5 6/18/5 5/19/5
f 9/20/5 10/21/5 11/22/5 12/23/5
f 12/24/4 11/25/4 13/26/4 14/27/4
f 14/28/3 13/29/3 15/30/3 16/31/3
f 16/32/2 15/33/2 10/34/2 9/35/2
f 13/36/1 11/37/1 10/38/1 15/30/1
s 1
f 17/39/5 18/40/5 19/41/5 20/42/5
f 20/42/4 19/43/4 21/44/4 22/45/4
f 22/46/3 21/47/3 23/48/3 24/49/3
f 24/49/2 23/50/2 18/51/2 17/52/2
f 20/53/6 22/54/6 24/55/6 17/56/6
f 21/57/1 19/58/1 18/59/1 23/60/1
f 25/61/5 26/62/5 27/63/5 28/64/5
f 28/65/4 27/66/4 29/67/4 30/68/4
f 30/69/3 29/70/3 31/71/3 32/72/3
f 28/73/6 30/69/6 32/72/6 25/74/6
f 33/75/5 34/76/5 35/77/5 36/78/5
f 36/79/7 35/80/7 37/81/7 38/82/7
f 38/83/3 37/84/3 39/85/3 40/86/3
f 36/87/6 38/83/6 40/86/6 33/88/6
f 41/89/5 42/90/5 43/91/5 44/92/5
f 44/93/7 43/94/7 45/95/7 46/96/7
f 46/97/3 45/98/3 47/99/3 48/100/3
f 44/101/6 46/97/6 48/100/6 41/102/6
f 49/103/5 50/104/5 51/105/5 52/106/5
f 52/107/8 51/108/8 53/109/8 54/110/8
f 54/111/3 53/112/3 55/113/3 56/114/3
f 52/115/6 54/116/6 56/117/6 49/118/6
f 53/119/1 51/105/1 50/104/1 55/120/1
f 57/121/5 58/122/5 59/123/5 60/124/5
f 60/125/7 59/126/7 61/127/7 62/128/7
f 62/129/3 61/130/3 63/131/3 64/132/3
f 61/133/1 59/134/1 58/135/1 63/136/1
f 65/137/5 66/138/5 67/139/5 68/140/5
f 68/141/7 67/142/7 69/143/7 70/144/7
f 70/145/3 69/146/3 71/147/3 72/148/3
f 69/149/1 67/139/1 66/138/1 71/150/1
f 73/151/5 74/152/5 75/153/5 76/154/5
f 76/155/4 75/156/4 77/157/4 78/158/4
f 78/159/3 77/160/3 79/161/3 80/162/3
f 77/163/1 75/164/1 74/165/1 79/166/1
f 81/167/9 86/168/9 88/169/9 82/170/9
f 83/171/10 84/172/11 82/173/4 88/174/4
f 84/175/12 83/176/13 90/177/14 85/178/15
f 82/179/6 84/180/6 85/181/6 81/182/6
f 86/168/5 91/183/5 87/184/5 88/169/5
f 88/185/4 87/186/4 95/187/4 83/188/10
f 83/189/3 95/190/3 89/191/3 90/192/3
f 91/193/16 92/194/16 93/195/16 87/196/16
f 95/187/4 87/186/4 93/197/4 94/198/4
f 95/199/17 94/200/17 96/201/17 89/202/17
f 94/200/1 93/203/1 92/204/1 96/201/1
f 107/205/2 102/206/2 106/207/2 105/208/2
f 97/209/18 110/210/18 98/211/18 99/212/18
f 101/213/19 100/214/20 104/215/21 109/216/22
f 99/217/6 101/218/6 109/219/6 97/220/6
f 110/221/3 112/222/3 106/223/3 98/224/3
f 100/225/5 102/226/5 103/227/5 104/228/5
f 112/229/17 111/230/17 105/231/17 106/232/17
f 102/233/16 107/234/16 108/235/16 103/236/16
f 107/237/1 105/238/1 111/239/1 108/240/1
f 109/241/4 104/242/4 110/243/4 97/244/4
f 104/242/8 103/245/8 112/246/8 110/243/8
f 103/245/4 108/247/4 111/248/4 112/246/4
f 100/249/2 98/250/2 106/207/2 102/206/2
f 99/251/2 98/250/2 100/249/2 101/252/23
