# Blender v2.79 (sub 0) OBJ File: ''
# www.blender.org
mtllib motor.mtl
o motor
v 0.125000 0.000000 1.000000
v 0.125000 0.062500 1.000000
v 0.125000 0.000000 0.000000
v 0.125000 0.062500 0.000000
v 0.875000 0.000000 1.000000
v 0.875000 0.062500 1.000000
v 0.875000 0.000000 0.000000
v 0.875000 0.062500 0.000000
v 0.125000 0.062500 0.812500
v 0.125000 0.875000 0.812500
v 0.125000 0.062500 0.750000
v 0.125000 0.875000 0.750000
v 0.875000 0.062500 0.812500
v 0.875000 0.875000 0.812500
v 0.875000 0.062500 0.750000
v 0.875000 0.875000 0.750000
v 0.125000 0.375000 0.750000
v 0.125000 0.625000 0.750000
v 0.125000 0.375000 0.062500
v 0.125000 0.625000 0.062500
v 0.875000 0.375000 0.750000
v 0.875000 0.625000 0.750000
v 0.875000 0.375000 0.062500
v 0.875000 0.625000 0.062500
v 0.187500 0.625000 0.750000
v 0.187500 0.750000 0.750000
v 0.187500 0.625000 0.062500
v 0.187500 0.750000 0.062500
v 0.812500 0.625000 0.750000
v 0.812500 0.750000 0.750000
v 0.812500 0.625000 0.062500
v 0.812500 0.750000 0.062500
v 0.187500 0.250000 0.750000
v 0.187500 0.375000 0.750000
v 0.187500 0.250000 0.062500
v 0.187500 0.375000 0.062500
v 0.812500 0.250000 0.750000
v 0.812500 0.375000 0.750000
v 0.812500 0.250000 0.062500
v 0.812500 0.375000 0.062500
v 0.250000 0.750000 0.750000
v 0.250000 0.812500 0.750000
v 0.250000 0.750000 0.062500
v 0.250000 0.812500 0.062500
v 0.750000 0.750000 0.750000
v 0.750000 0.812500 0.750000
v 0.750000 0.750000 0.062500
v 0.750000 0.812500 0.062500
v 0.375000 0.812500 0.750000
v 0.375000 0.875000 0.750000
v 0.375000 0.812500 0.062500
v 0.375000 0.875000 0.062500
v 0.625000 0.812500 0.750000
v 0.625000 0.875000 0.750000
v 0.625000 0.812500 0.062500
v 0.625000 0.875000 0.062500
v 0.250000 0.187500 0.750000
v 0.250000 0.250000 0.750000
v 0.250000 0.187500 0.062500
v 0.250000 0.250000 0.062500
v 0.750000 0.187500 0.750000
v 0.750000 0.250000 0.750000
v 0.750000 0.187500 0.062500
v 0.750000 0.250000 0.062500
v 0.375000 0.125000 0.750000
v 0.375000 0.187500 0.750000
v 0.375000 0.125000 0.062500
v 0.375000 0.187500 0.048223
v 0.625000 0.125000 0.750000
v 0.625000 0.187500 0.750000
v 0.625000 0.125000 0.062500
v 0.625000 0.187500 0.048223
v 0.125000 0.062500 0.375000
v 0.125000 0.875000 0.375000
v 0.125000 0.062500 0.312500
v 0.125000 0.875000 0.312500
v 0.875000 0.062500 0.375000
v 0.875000 0.875000 0.375000
v 0.875000 0.062500 0.312500
v 0.875000 0.875000 0.312500
v 0.125000 0.312500 1.062500
v 0.125000 0.687500 1.062500
v 0.125000 0.312500 0.812500
v 0.125000 0.687500 0.812500
v 0.875000 0.312500 1.062500
v 0.875000 0.687500 1.062500
v 0.875000 0.312500 0.812500
v 0.875000 0.687500 0.812500
v 0.312500 0.875000 1.062500
v 0.312500 0.875000 0.812500
v 0.687500 0.875000 1.062500
v 0.687500 0.875000 0.812500
v 0.312500 0.125000 1.062500
v 0.312500 0.125000 0.812500
v 0.687500 0.125000 1.062500
v 0.687500 0.125000 0.812500
v 0.125000 0.312500 0.062500
v 0.125000 0.687500 0.062500
v 0.125000 0.312500 0.000000
v 0.125000 0.687500 0.000000
v 0.875000 0.312500 0.062500
v 0.875000 0.687500 0.062500
v 0.875000 0.312500 0.000000
v 0.875000 0.687500 0.000000
v 0.312500 0.875000 0.062500
v 0.312500 0.875000 0.000000
v 0.687500 0.875000 0.062500
v 0.687500 0.875000 0.000000
v 0.312500 0.125000 0.062500
v 0.312500 0.125000 0.000000
v 0.687500 0.125000 0.062500
v 0.687500 0.125000 0.000000
v 0.875000 0.687500 1.062500
v 0.875000 0.312500 1.062500
v 0.125000 0.687500 1.062500
v 0.125000 0.312500 1.062500
v 0.875000 0.687500 0.000000
v 0.875000 0.312500 0.000000
v 0.125000 0.687500 0.000000
v 0.125000 0.312500 0.000000
vt 0.000000 0.750000
vt 0.015625 0.750000
vt 0.015625 1.000000
vt 0.000000 1.000000
vt 0.187500 0.984375
vt 0.187500 1.000000
vt 0.000000 1.000000
vt 0.000000 0.984375
vt 0.000000 0.750000
vt 0.015625 0.750000
vt 0.015625 1.000000
vt 0.000000 1.000000
vt 0.000000 0.984375
vt 0.187500 0.984375
vt 0.187500 1.000000
vt 0.000000 0.750000
vt 0.187500 0.750000
vt 0.187500 1.000000
vt 0.000000 1.000000
vt 0.000000 0.750000
vt 0.187500 0.750000
vt 0.187500 1.000000
vt 0.000000 1.000000
vt 0.203125 1.000000
vt 0.203125 0.796875
vt 0.187500 0.796875
vt 0.187500 1.000000
vt 0.187500 0.796875
vt 0.187500 1.000000
vt 0.375000 1.000000
vt 0.375000 0.796875
vt 0.203125 0.796875
vt 0.203125 1.000000
vt 0.187500 1.000000
vt 0.187500 0.796875
vt 0.187500 1.000000
vt 0.187500 0.796875
vt 0.375000 0.796875
vt 0.375000 1.000000
vt 0.187500 0.984375
vt 0.375000 0.984375
vt 0.171875 0.625000
vt 0.171875 0.687500
vt 0.000000 0.687500
vt 0.000000 0.625000
vt 0.000000 0.687500
vt 0.000000 0.625000
vt 0.171875 0.625000
vt 0.171875 0.687500
vt 0.000000 0.500000
vt 0.171875 0.500000
vt 0.000000 0.500000
vt 0.171875 0.500000
vt 0.171875 0.593750
vt 0.171875 0.625000
vt 0.000000 0.625000
vt 0.000000 0.593750
vt 0.000000 0.593750
vt 0.000000 0.625000
vt 0.171875 0.625000
vt 0.171875 0.593750
vt 0.000000 0.500000
vt 0.171875 0.500000
vt 0.171875 0.593750
vt 0.171875 0.625000
vt 0.000000 0.625000
vt 0.000000 0.593750
vt 0.000000 0.593750
vt 0.000000 0.625000
vt 0.171875 0.625000
vt 0.171875 0.593750
vt 0.000000 0.625000
vt 0.000000 0.500000
vt 0.171875 0.500000
vt 0.171875 0.625000
vt 0.171875 0.609375
vt 0.171875 0.625000
vt 0.000000 0.625000
vt 0.000000 0.609375
vt 0.000000 0.609375
vt 0.000000 0.625000
vt 0.171875 0.625000
vt 0.171875 0.609375
vt 0.000000 0.500000
vt 0.171875 0.500000
vt 0.171875 0.609375
vt 0.171875 0.625000
vt 0.000000 0.625000
vt 0.000000 0.609375
vt 0.000000 0.609375
vt 0.000000 0.625000
vt 0.171875 0.625000
vt 0.171875 0.609375
vt 0.000000 0.687500
vt 0.171875 0.687500
vt 0.171875 0.609375
vt 0.171875 0.625000
vt 0.000000 0.625000
vt 0.000000 0.609375
vt 0.000000 0.609375
vt 0.000000 0.625000
vt 0.171875 0.625000
vt 0.171875 0.609375
vt 0.000000 0.625000
vt 0.000000 0.500000
vt 0.171875 0.500000
vt 0.171875 0.625000
vt 0.171875 0.609375
vt 0.171875 0.625000
vt 0.000000 0.625000
vt 0.000000 0.609375
vt 0.000000 0.609375
vt 0.000000 0.625000
vt 0.171875 0.625000
vt 0.171875 0.609375
vt 0.000000 0.625000
vt 0.000000 0.687500
vt 0.171875 0.687500
vt 0.171875 0.625000
vt 0.203125 1.000000
vt 0.203125 0.796875
vt 0.187500 0.796875
vt 0.187500 1.000000
vt 0.187500 0.796875
vt 0.187500 1.000000
vt 0.375000 1.000000
vt 0.375000 0.796875
vt 0.203125 0.796875
vt 0.203125 1.000000
vt 0.187500 1.000000
vt 0.187500 0.796875
vt 0.187500 1.000000
vt 0.187500 0.796875
vt 0.375000 0.796875
vt 0.375000 1.000000
vt 0.187500 0.984375
vt 0.375000 0.984375
vt 0.156250 0.750000
vt 0.062500 0.750000
vt 0.062500 0.687500
vt 0.156250 0.687500
vt 0.062500 0.687500
vt 0.156250 0.687500
vt 0.156250 0.750000
vt 0.062500 0.750000
vt -0.000000 0.750000
vt -0.000000 0.687500
vt 0.062500 0.687500
vt 0.062500 0.750000
vt 0.062500 0.687500
vt 0.062500 0.750000
vt -0.000000 0.750000
vt -0.000000 0.687500
vt 0.562500 0.953125
vt 0.515625 1.000000
vt 0.421875 1.000000
vt 0.375000 0.953125
vt 0.156250 0.750000
vt 0.062500 0.750000
vt 0.062500 0.687500
vt 0.156250 0.687500
vt -0.000000 0.750000
vt -0.000000 0.687500
vt 0.062500 0.687500
vt 0.062500 0.750000
vt 0.062500 0.687500
vt 0.062500 0.750000
vt -0.000000 0.750000
vt -0.000000 0.687500
vt 0.515625 0.812500
vt 0.562500 0.859375
vt 0.375000 0.859375
vt 0.421875 0.812500
vt 0.062500 0.687500
vt 0.156250 0.687500
vt 0.156250 0.750000
vt 0.062500 0.750000
vt 0.750000 0.859375
vt 0.750000 0.953125
vt 0.734375 0.953125
vt 0.734375 0.859375
vt 0.578125 0.859375
vt 0.578125 0.953125
vt 0.562500 0.953125
vt 0.562500 0.859375
vt 0.375000 0.953125
vt 0.375000 0.859375
vt -0.000000 0.687500
vt 0.062500 0.687500
vt 0.062500 0.703125
vt 0.000000 0.703125
vt 0.562500 0.953125
vt 0.609375 1.000000
vt 0.703125 1.000000
vt 0.750000 0.953125
vt 0.015625 0.937500
vt 0.015625 1.000000
vt 0.000049 0.999951
vt -0.000000 0.937500
vt 0.515625 1.000000
vt 0.421875 1.000000
vt 0.609375 0.984375
vt 0.703125 0.984375
vt 0.187500 0.937500
vt 0.187500 1.000000
vt 0.171875 1.000000
vt 0.171875 0.937500
vt 0.609375 0.812500
vt 0.562500 0.859375
vt 0.750000 0.859375
vt 0.703125 0.812500
vt -0.000000 0.750000
vt 0.062500 0.750000
vt 0.062500 0.765625
vt 0.000000 0.765625
vt 0.515625 0.812500
vt 0.421875 0.812500
vt 0.703125 0.828125
vt 0.609375 0.828125
vt 0.562500 0.859375
vt 0.562500 0.953125
vt 0.375000 0.953125
vt 0.375000 0.859375
vt 0.562500 0.953125
vt 0.562500 0.859375
vt 0.750000 0.859375
vt 0.750000 0.953125
vn -1.0000 0.0000 0.0000
vn 0.0000 0.0000 -1.0000
vn 1.0000 0.0000 0.0000
vn 0.0000 0.0000 1.0000
vn 0.0000 -1.0000 0.0000
vn 0.0000 1.0000 0.0000
vn -0.7071 0.7071 0.0000
vn 0.7071 0.7071 0.0000
vn -0.7071 -0.7071 0.0000
vn 0.7071 -0.7071 0.0000
usemtl motor
s off
f 1/1/1 2/2/1 4/3/1 3/4/1
f 3/5/2 4/6/2 8/7/2 7/8/2
f 7/9/3 8/10/3 6/11/3 5/12/3
f 5/12/4 6/13/4 2/14/4 1/15/4
f 3/16/5 7/17/5 5/18/5 1/19/5
f 8/20/6 4/21/6 2/22/6 6/23/6
f 9/24/1 10/25/1 12/26/1 11/27/1
f 11/28/2 12/29/2 16/30/2 15/31/2
f 15/32/3 16/33/3 14/34/3 13/35/3
f 13/36/4 14/37/4 10/38/4 9/39/4
f 16/30/6 12/29/6 10/40/6 14/41/6
f 17/42/1 18/43/1 20/44/1 19/45/1
f 23/46/3 24/47/3 22/48/3 21/49/3
f 19/45/5 23/50/5 21/51/5 17/42/5
f 24/47/6 20/52/6 18/53/6 22/48/6
f 25/54/1 26/55/1 28/56/1 27/57/1
f 31/58/3 32/59/3 30/60/3 29/61/3
f 32/59/6 28/62/6 26/63/6 30/60/6
f 33/64/1 34/65/1 36/66/1 35/67/1
f 39/68/3 40/69/3 38/70/3 37/71/3
f 35/72/5 39/73/5 37/74/5 33/75/5
f 41/76/1 42/77/1 44/78/1 43/79/1
f 47/80/3 48/81/3 46/82/3 45/83/3
f 48/81/6 44/84/6 42/85/6 46/82/6
f 49/86/1 50/87/1 52/88/1 51/89/1
f 55/90/3 56/91/3 54/92/3 53/93/3
f 56/94/6 52/88/6 50/87/6 54/95/6
f 57/96/1 58/97/1 60/98/1 59/99/1
f 63/100/3 64/101/3 62/102/3 61/103/3
f 59/104/5 63/105/5 61/106/5 57/107/5
f 65/108/1 66/109/1 68/110/1 67/111/1
f 71/112/3 72/113/3 70/114/3 69/115/3
f 67/116/5 71/117/5 69/118/5 65/119/5
f 73/120/1 74/121/1 76/122/1 75/123/1
f 75/124/2 76/125/2 80/126/2 79/127/2
f 79/128/3 80/129/3 78/130/3 77/131/3
f 77/132/4 78/133/4 74/134/4 73/135/4
f 80/126/6 76/125/6 74/136/6 78/137/6
f 81/138/1 82/139/1 84/140/1 83/141/1
f 87/142/3 88/143/3 86/144/3 85/145/3
f 82/146/7 89/147/7 90/148/7 84/149/7
f 88/150/8 92/151/8 91/152/8 86/153/8
f 86/154/4 91/155/4 89/156/4 82/157/4
f 92/158/6 90/159/6 89/160/6 91/161/6
f 93/162/9 81/163/9 83/164/9 94/165/9
f 96/166/10 87/167/10 85/168/10 95/169/10
f 95/170/4 85/171/4 81/172/4 93/173/4
f 94/174/5 96/175/5 95/176/5 93/177/5
f 97/178/1 98/179/1 100/180/1 99/181/1
f 103/182/3 104/183/3 102/184/3 101/185/3
f 101/185/4 102/184/4 98/186/4 97/187/4
f 98/188/7 105/189/7 106/190/7 100/191/7
f 100/192/2 106/193/2 108/194/2 104/195/2
f 104/196/8 108/197/8 107/198/8 102/199/8
f 102/184/4 107/200/4 105/201/4 98/186/4
f 108/194/6 106/193/6 105/202/6 107/203/6
f 109/204/9 97/205/9 99/206/9 110/207/9
f 110/208/2 99/209/2 103/210/2 112/211/2
f 112/212/10 103/213/10 101/214/10 111/215/10
f 111/216/4 101/185/4 97/187/4 109/217/4
f 110/208/5 112/211/5 111/218/5 109/219/5
f 115/220/4 116/221/4 114/222/4 113/223/4
f 117/224/2 118/225/2 120/226/2 119/227/2
